<svg width="480" height="480" viewBox="0 0 480 480" fill="none" xmlns="http://www.w3.org/2000/svg">
<path d="M472 0H8C3.576 0 0 3.584 0 8V136C0 140.416 3.576 144 8 144H88V440C88 462.056 105.944 480 128 480H352C374.056 480 392 462.056 392 440V424V392V144H472C476.424 144 480 140.416 480 136V8C480 3.584 476.424 0 472 0ZM295.36 16C291.456 43.096 268.152 64 240 64C211.848 64 188.544 43.096 184.64 16H295.36ZM376 416H352V400H376V416ZM464 40H392V56H464V128H384C379.576 128 376 131.584 376 136V384H344C339.576 384 336 387.584 336 392V424C336 428.416 339.576 432 344 432H376V440C376 453.232 365.232 464 352 464H128C114.768 464 104 453.232 104 440V136C104 131.584 100.424 128 96 128H16V56H88V40H16V16H168.472C172.464 51.944 203 80 240 80C277 80 307.536 51.944 311.528 16H464V40Z" fill="black"/>
</svg>
